{
    "asset" : {
        "generator" : "Khronos glTF Blender I/O v1.2.75",
        "version" : "2.0"
    },
    "scene" : 0,
    "scenes" : [
        {
            "extras" : {
                "glTF2ExportSettings" : {
                    "export_apply" : 1,
                    "export_colors" : 1,
                    "export_draco_mesh_compression_enable" : 0,
                    "export_extras" : 1,
                    "export_format" : "GLTF_EMBEDDED",
                    "export_materials" : 0,
                    "export_tangents" : 1
                }
            },
            "name" : "Scene",
            "nodes" : [
                0
            ]
        }
    ],
    "nodes" : [
        {
            "mesh" : 0,
            "name" : "Can_1",
            "translation" : [
                1.4835752248764038,
                1.1552520990371704,
                -1.2580927610397339
            ]
        }
    ],
    "meshes" : [
        {
            "name" : "Cylinder",
            "primitives" : [
                {
                    "attributes" : {
                        "POSITION" : 0,
                        "NORMAL" : 1
                    },
                    "indices" : 2
                }
            ]
        }
    ],
    "accessors" : [
        {
            "bufferView" : 0,
            "componentType" : 5126,
            "count" : 1608,
            "max" : [
                0.07414405047893524,
                0.16767928004264832,
                0.07414358109235764
            ],
            "min" : [
                -0.07414375990629196,
                -0.0034220307134091854,
                -0.07414422929286957
            ],
            "type" : "VEC3"
        },
        {
            "bufferView" : 1,
            "componentType" : 5126,
            "count" : 1608,
            "type" : "VEC3"
        },
        {
            "bufferView" : 2,
            "componentType" : 5123,
            "count" : 6324,
            "type" : "SCALAR"
        }
    ],
    "bufferViews" : [
        {
            "buffer" : 0,
            "byteLength" : 19296,
            "byteOffset" : 0
        },
        {
            "buffer" : 0,
            "byteLength" : 19296,
            "byteOffset" : 19296
        },
        {
            "buffer" : 0,
            "byteLength" : 12648,
            "byteOffset" : 38592
        }
    ],
    "buffers" : [
        {
            "byteLength" : 51240,
            "uri" : "data:application/octet-stream;base64,"
        }
    ]
}
