# Blender v2.83.5 OBJ File: 'metal_floor_tile_set.blend'
# www.blender.org
mtllib stainless_steel_floor.mtl
o metal_floor_Plane.007
v 2.000000 0.000000 -6.000000
v 2.000000 0.000000 -4.000000
v 0.000000 0.000000 -4.000000
v 0.000000 0.000000 -6.000000
v 14.000000 0.000000 -6.000000
v 14.000000 0.000000 -4.000000
v 12.000000 0.000000 -4.000000
v 12.000000 0.000000 -6.000000
v 14.000000 0.000000 -10.000000
v 12.000000 0.000000 -10.000000
v 2.000000 0.000000 -10.000000
v 0.000000 0.000000 -10.000000
v 14.000000 0.000000 -8.000000
v 12.000000 0.000000 -8.000000
v 2.000000 0.000000 -8.000000
v 0.000000 0.000000 -8.000000
v 14.000000 0.000000 -2.000000
v 14.000000 0.000000 0.000000
v 12.000000 0.000000 -2.000000
v 12.000000 0.000000 0.000000
v 2.000000 0.000000 -2.000000
v 0.000000 0.000000 -2.000000
v 2.000000 0.000000 0.000000
v 0.000000 0.000000 0.000000
v 2.000000 0.000000 -9.000000
v 12.000000 0.000000 -9.000000
v 11.000000 0.000000 -8.000000
v 10.000000 0.000000 -8.000000
v 9.000000 0.000000 -8.000000
v 8.000000 0.000000 -8.000000
v 7.000000 0.000000 -8.000000
v 6.000000 0.000000 -8.000000
v 5.000000 0.000000 -8.000000
v 4.000000 0.000000 -8.000000
v 3.000000 0.000000 -8.000000
v 11.000000 0.000000 -10.000000
v 10.000000 0.000000 -10.000000
v 9.000000 0.000000 -10.000000
v 8.000000 0.000000 -10.000000
v 7.000000 0.000000 -10.000000
v 6.000000 0.000000 -10.000000
v 5.000000 0.000000 -10.000000
v 4.000000 0.000000 -10.000000
v 3.000000 0.000000 -10.000000
v 3.000000 0.000000 -9.000000
v 4.000000 0.000000 -9.000000
v 5.000000 0.000000 -9.000000
v 6.000000 0.000000 -9.000000
v 7.000000 0.000000 -9.000000
v 8.000000 0.000000 -9.000000
v 9.000000 0.000000 -9.000000
v 10.000000 0.000000 -9.000000
v 11.000000 0.000000 -9.000000
v 12.000000 0.000000 -1.000000
v 2.000000 0.000000 -1.000000
v 11.000000 0.000000 -2.000000
v 10.000000 0.000000 -2.000000
v 9.000000 0.000000 -2.000000
v 8.000000 0.000000 -2.000000
v 7.000000 0.000000 -2.000000
v 6.000000 0.000000 -2.000000
v 5.000000 0.000000 -2.000000
v 4.000000 0.000000 -2.000000
v 3.000000 0.000000 -2.000000
v 3.000000 0.000000 0.000000
v 4.000000 0.000000 0.000000
v 5.000000 0.000000 0.000000
v 6.000000 0.000000 0.000000
v 7.000000 0.000000 0.000000
v 8.000000 0.000000 0.000000
v 9.000000 0.000000 0.000000
v 10.000000 0.000000 0.000000
v 11.000000 0.000000 0.000000
v 3.000000 0.000000 -1.000000
v 4.000000 0.000000 -1.000000
v 5.000000 0.000000 -1.000000
v 6.000000 0.000000 -1.000000
v 7.000000 0.000000 -1.000000
v 8.000000 0.000000 -1.000000
v 9.000000 0.000000 -1.000000
v 10.000000 0.000000 -1.000000
v 11.000000 0.000000 -1.000000
v 2.000000 0.000000 -5.000000
v 12.000000 0.000000 -5.000000
v 11.000000 0.000000 -4.000000
v 10.000000 0.000000 -4.000000
v 9.000000 0.000000 -4.000000
v 8.000000 0.000000 -4.000000
v 7.000000 0.000000 -4.000000
v 6.000000 0.000000 -4.000000
v 5.000000 0.000000 -4.000000
v 4.000000 0.000000 -4.000000
v 3.000000 0.000000 -4.000000
v 11.000000 0.000000 -6.000000
v 10.000000 0.000000 -6.000000
v 9.000000 0.000000 -6.000000
v 8.000000 0.000000 -6.000000
v 7.000000 0.000000 -6.000000
v 6.000000 0.000000 -6.000000
v 5.000000 0.000000 -6.000000
v 4.000000 0.000000 -6.000000
v 3.000000 0.000000 -6.000000
v 3.000000 0.000000 -5.000000
v 4.000000 0.000000 -5.000000
v 5.000000 0.000000 -5.000000
v 6.000000 0.000000 -5.000000
v 7.000000 0.000000 -5.000000
v 8.000000 0.000000 -5.000000
v 9.000000 0.000000 -5.000000
v 10.000000 0.000000 -5.000000
v 11.000000 0.000000 -5.000000
v 1.000000 0.000000 -2.000000
v 2.000000 0.000000 -1.500000
v 1.000000 0.000000 0.000000
v 0.000000 0.000000 -1.000000
v 2.000000 0.000000 -0.500000
v 1.000000 0.000000 -1.000000
v 1.000000 0.000000 -4.000000
v 1.000000 0.000000 -10.000000
v 1.000000 0.000000 -6.000000
v 1.000000 0.000000 -8.000000
v 12.000000 0.000000 -3.000000
v 14.000000 0.000000 -3.000000
v 2.000000 0.000000 -3.000000
v 1.000000 0.000000 -3.000000
v 0.000000 0.000000 -3.000000
v 13.000000 0.000000 -8.000000
v 13.000000 0.000000 -3.000000
v 13.000000 0.000000 0.000000
v 13.000000 0.000000 -6.000000
v 13.000000 0.000000 -2.000000
v 13.000000 0.000000 -10.000000
v 13.000000 0.000000 -4.000000
v 13.000000 0.000000 -5.000000
v 14.000000 0.000000 -5.000000
v 13.000000 0.000000 -7.000000
v 14.000000 0.000000 -7.000000
v 12.000000 0.000000 -7.000000
v 14.000000 0.000000 -9.000000
v 13.000000 0.000000 -9.000000
v 1.000000 0.000000 -9.000001
v 0.000000 0.000000 -9.000000
v 0.000000 0.000000 -7.000000
v 2.000000 0.000000 -7.000000
v 1.000000 0.000000 -7.000000
v 1.000000 0.000000 -5.000000
v 0.000000 0.000000 -5.000000
v 13.000000 0.000000 -1.000000
v 14.000000 0.000000 -1.000000
vt 0.354539 0.705481
vt 0.354539 0.705481
vt 0.354539 0.705481
vt 0.354539 0.705481
vt 0.370906 0.731224
vt 0.370906 0.731224
vt 0.370906 0.731224
vt 0.370906 0.731224
vt 0.539656 0.274974
vt 0.539656 0.274974
vt 0.539656 0.274974
vt 0.539656 0.274974
vt 0.441258 0.264856
vt 0.441258 0.264856
vt 0.441258 0.264856
vt 0.441258 0.264856
vt 0.406883 0.358606
vt 0.406883 0.358606
vt 0.406883 0.358606
vt 0.406883 0.358606
vt 0.377937 0.259349
vt 0.377937 0.259349
vt 0.377937 0.259349
vt 0.377937 0.259349
vt 0.477937 0.268724
vt 0.477937 0.268724
vt 0.477937 0.268724
vt 0.477937 0.268724
vt 0.478718 0.587474
vt 0.478718 0.587474
vt 0.478718 0.587474
vt 0.478718 0.587474
vt 0.484187 0.734349
vt 0.484187 0.734349
vt 0.484187 0.734349
vt 0.484187 0.734349
vt 0.563875 0.634349
vt 0.563875 0.634349
vt 0.563875 0.634349
vt 0.563875 0.634349
vt 0.712312 0.506224
vt 0.712312 0.506224
vt 0.712312 0.506224
vt 0.712312 0.506224
vt 0.424812 0.121849
vt 0.424812 0.121849
vt 0.424812 0.121849
vt 0.424812 0.121849
vt 0.453758 0.752356
vt 0.453758 0.752356
vt 0.453758 0.752356
vt 0.453758 0.752356
vt 0.377937 0.259349
vt 0.377937 0.259349
vt 0.573667 0.468036
vt 0.573667 0.468036
vt 0.573667 0.468036
vt 0.573667 0.468036
vt 0.313868 0.518724
vt 0.313868 0.518724
vt 0.313868 0.518724
vt 0.313868 0.518724
vt 0.092690 0.518724
vt 0.092690 0.518724
vt 0.092690 0.518724
vt 0.092690 0.518724
vt 0.437312 0.465599
vt 0.437312 0.465599
vt 0.437312 0.465599
vt 0.437312 0.465599
vt 0.370906 0.731224
vt 0.370906 0.731224
vt 0.370906 0.731224
vt 0.370906 0.731224
vt 0.377937 0.259349
vt 0.377937 0.259349
vt 0.377937 0.259349
vt 0.377937 0.259349
vt 0.377937 0.259349
vt 0.377937 0.259349
vt 0.377937 0.259349
vt 0.377937 0.259349
vt 0.628718 0.468724
vt 0.628718 0.468724
vt 0.628718 0.468724
vt 0.628718 0.468724
vt 0.663093 0.359349
vt 0.663093 0.359349
vt 0.663093 0.359349
vt 0.663093 0.359349
vt 0.437312 0.465599
vt 0.437312 0.465599
vt 0.437312 0.465599
vt 0.437312 0.465599
vt 0.429500 0.287474
vt 0.429500 0.287474
vt 0.429500 0.287474
vt 0.429500 0.287474
vt 0.377937 0.259349
vt 0.377937 0.259349
vt 0.377937 0.259349
vt 0.377937 0.259349
vt 0.659968 0.743724
vt 0.659968 0.743724
vt 0.659968 0.743724
vt 0.659968 0.743724
vt 0.258445 0.892981
vt 0.258445 0.892981
vt 0.258445 0.892981
vt 0.258445 0.892981
vt 0.258445 0.892981
vt 0.316258 0.839856
vt 0.316258 0.839856
vt 0.316258 0.839856
vt 0.316258 0.839856
vt 0.773250 0.878099
vt 0.773250 0.878099
vt 0.773250 0.878099
vt 0.773250 0.878099
vt 0.777156 0.737474
vt 0.777156 0.737474
vt 0.777156 0.737474
vt 0.777156 0.737474
vt 0.751375 0.493724
vt 0.751375 0.493724
vt 0.751375 0.493724
vt 0.751375 0.493724
vt 0.760750 0.353099
vt 0.760750 0.353099
vt 0.760750 0.353099
vt 0.760750 0.353099
vt 0.676375 0.112474
vt 0.676375 0.112474
vt 0.676375 0.112474
vt 0.676375 0.112474
vt 0.726375 0.690599
vt 0.726375 0.690599
vt 0.726375 0.690599
vt 0.726375 0.690599
vt 0.711531 0.868724
vt 0.711531 0.868724
vt 0.711531 0.868724
vt 0.711531 0.868724
vt 0.404539 0.105481
vt 0.404539 0.105481
vt 0.404539 0.105481
vt 0.404539 0.105481
vt 0.404539 0.105481
vt 0.349852 0.080481
vt 0.349852 0.080481
vt 0.349852 0.080481
vt 0.349852 0.080481
vt 0.638875 0.034349
vt 0.638875 0.034349
vt 0.638875 0.034349
vt 0.638875 0.034349
vt 0.649031 0.887474
vt 0.649031 0.887474
vt 0.649031 0.887474
vt 0.649031 0.887474
vt 0.531843 0.865599
vt 0.531843 0.865599
vt 0.531843 0.865599
vt 0.531843 0.865599
vt 0.740437 0.303099
vt 0.740437 0.303099
vt 0.740437 0.303099
vt 0.740437 0.303099
vt 0.738875 0.074974
vt 0.738875 0.074974
vt 0.738875 0.074974
vt 0.738875 0.074974
vt 0.841218 0.306224
vt 0.841218 0.306224
vt 0.841218 0.306224
vt 0.841218 0.306224
vt 0.766218 0.099974
vt 0.766218 0.099974
vt 0.766218 0.099974
vt 0.766218 0.099974
vt 0.813093 0.153099
vt 0.813093 0.153099
vt 0.813093 0.153099
vt 0.813093 0.153099
vt 0.815437 0.709349
vt 0.815437 0.709349
vt 0.815437 0.709349
vt 0.815437 0.709349
vt 0.826375 0.868724
vt 0.826375 0.868724
vt 0.826375 0.868724
vt 0.826375 0.868724
vt 0.377937 0.259349
vt 0.377937 0.259349
vt 0.377937 0.259349
vt 0.377937 0.259349
vt 0.377937 0.259349
vt 0.377937 0.259349
vt 0.377937 0.259349
vt 0.377937 0.259349
vt 0.377937 0.259349
vt 0.377937 0.259349
vt 0.377937 0.259349
vt 0.377937 0.259349
vt 0.377937 0.259349
vt 0.377937 0.259349
vt 0.377937 0.259349
vt 0.377937 0.259349
vt 0.867781 0.881224
vt 0.867781 0.881224
vt 0.867781 0.881224
vt 0.867781 0.881224
vt 0.871687 0.712474
vt 0.871687 0.712474
vt 0.871687 0.712474
vt 0.871687 0.712474
vt 0.868562 0.481224
vt 0.868562 0.481224
vt 0.868562 0.481224
vt 0.868562 0.481224
vt 0.866218 0.324974
vt 0.866218 0.324974
vt 0.866218 0.324974
vt 0.866218 0.324974
vt 0.860750 0.124974
vt 0.860750 0.124974
vt 0.860750 0.124974
vt 0.860750 0.124974
vt 0.338093 0.881224
vt 0.338093 0.881224
vt 0.338093 0.881224
vt 0.338093 0.881224
vt 0.377937 0.259349
vt 0.377937 0.259349
vt 0.377937 0.259349
vt 0.377937 0.259349
vt 0.116258 0.489856
vt 0.116258 0.489856
vt 0.116258 0.489856
vt 0.116258 0.489856
vt 0.115477 0.308606
vt 0.115477 0.308606
vt 0.115477 0.308606
vt 0.115477 0.308606
vt 0.115477 0.308606
vt 0.167039 0.283606
vt 0.167039 0.283606
vt 0.167039 0.283606
vt 0.167039 0.283606
vt 0.167039 0.283606
vt 0.377937 0.259349
vt 0.377937 0.259349
vt 0.105320 0.146106
vt 0.105320 0.146106
vt 0.105320 0.146106
vt 0.105320 0.146106
vt 0.163914 0.067981
vt 0.163914 0.067981
vt 0.163914 0.067981
vt 0.163914 0.067981
vt 0.525593 0.487474
vt 0.525593 0.487474
vt 0.525593 0.487474
vt 0.525593 0.487474
vt 0.372508 0.505481
vt 0.372508 0.505481
vt 0.372508 0.505481
vt 0.372508 0.505481
vt 0.368602 0.527356
vt 0.368602 0.527356
vt 0.368602 0.527356
vt 0.368602 0.527356
vt 0.534187 0.434349
vt 0.534187 0.434349
vt 0.534187 0.434349
vt 0.534187 0.434349
vt 0.318562 0.724974
vt 0.318562 0.724974
vt 0.318562 0.724974
vt 0.318562 0.724974
vt 0.564656 0.865599
vt 0.564656 0.865599
vt 0.564656 0.865599
vt 0.564656 0.865599
vt 0.269343 0.699974
vt 0.269343 0.699974
vt 0.269343 0.699974
vt 0.269343 0.699974
vt 0.280281 0.912474
vt 0.280281 0.912474
vt 0.280281 0.912474
vt 0.280281 0.912474
vt 0.478718 0.115599
vt 0.478718 0.115599
vt 0.478718 0.115599
vt 0.478718 0.115599
vt 0.206843 0.496849
vt 0.206843 0.496849
vt 0.206843 0.496849
vt 0.206843 0.496849
vt 0.221687 0.659349
vt 0.221687 0.659349
vt 0.221687 0.659349
vt 0.221687 0.659349
vt 0.227156 0.249974
vt 0.227156 0.249974
vt 0.227156 0.249974
vt 0.227156 0.249974
vt 0.236531 0.134349
vt 0.236531 0.134349
vt 0.236531 0.134349
vt 0.236531 0.134349
vt 0.209187 0.849974
vt 0.209187 0.849974
vt 0.209187 0.849974
vt 0.209187 0.849974
vt 0.442936 0.734833
vt 0.442936 0.734833
vt 0.442936 0.734833
vt 0.442936 0.734833
vt 0.172469 0.331224
vt 0.172469 0.331224
vt 0.172469 0.331224
vt 0.172469 0.331224
vt 0.377937 0.259349
vt 0.377937 0.259349
vt 0.377937 0.259349
vt 0.156844 0.531224
vt 0.156844 0.531224
vt 0.156844 0.531224
vt 0.156844 0.531224
vt 0.019383 0.696106
vt 0.019383 0.696106
vt 0.019383 0.696106
vt 0.019383 0.696106
vt 0.339695 0.499231
vt 0.339695 0.499231
vt 0.339695 0.499231
vt 0.339695 0.499231
vt 0.339695 0.499231
vt 0.339695 0.499231
vt 0.339695 0.499231
vt 0.518562 0.543724
vt 0.518562 0.543724
vt 0.518562 0.543724
vt 0.518562 0.543724
vt 0.506062 0.481224
vt 0.506062 0.481224
vt 0.506062 0.481224
vt 0.506062 0.481224
vn 0.0000 1.0000 0.0000
usemtl metal_floor
s off
f 103/1/1 83/2/1 2/3/1 93/4/1
f 7/5/1 133/6/1 134/7/1 84/8/1
f 19/9/1 131/10/1 128/11/1 122/12/1
f 3/13/1 118/14/1 146/15/1 147/16/1
f 22/17/1 112/18/1 125/19/1 126/20/1
f 45/21/1 25/22/1 15/23/1 35/24/1
f 16/25/1 121/26/1 141/27/1 142/28/1
f 14/29/1 127/30/1 140/31/1 26/32/1
f 4/33/1 120/34/1 145/35/1 143/36/1
f 8/37/1 130/38/1 136/39/1 138/40/1
f 19/41/1 54/42/1 148/43/1 131/44/1
f 82/45/1 73/46/1 20/47/1 54/48/1
f 24/49/1 114/50/1 117/51/1 115/52/1
f 44/53/1 11/54/1 25/22/1 45/21/1
f 10/55/1 36/56/1 53/57/1 26/58/1
f 36/59/1 37/60/1 52/61/1 53/62/1
f 37/63/1 38/64/1 51/65/1 52/66/1
f 38/67/1 39/68/1 50/69/1 51/70/1
f 39/71/1 40/72/1 49/73/1 50/74/1
f 40/75/1 41/76/1 48/77/1 49/78/1
f 41/76/1 42/79/1 47/80/1 48/77/1
f 42/79/1 43/81/1 46/82/1 47/80/1
f 43/81/1 44/53/1 45/21/1 46/82/1
f 26/83/1 53/84/1 27/85/1 14/86/1
f 53/87/1 52/88/1 28/89/1 27/90/1
f 52/91/1 51/70/1 29/92/1 28/93/1
f 51/70/1 50/69/1 30/94/1 29/92/1
f 50/95/1 49/96/1 31/97/1 30/98/1
f 49/78/1 48/77/1 32/99/1 31/100/1
f 48/77/1 47/80/1 33/101/1 32/99/1
f 47/80/1 46/82/1 34/102/1 33/101/1
f 46/82/1 45/21/1 35/24/1 34/102/1
f 56/103/1 82/104/1 54/105/1 19/106/1
f 21/107/1 113/108/1 55/109/1 74/110/1 64/111/1
f 64/112/1 74/113/1 75/114/1 63/115/1
f 63/116/1 75/117/1 76/118/1 62/119/1
f 62/120/1 76/121/1 77/122/1 61/123/1
f 61/124/1 77/125/1 78/126/1 60/127/1
f 60/128/1 78/129/1 79/130/1 59/131/1
f 59/132/1 79/133/1 80/134/1 58/135/1
f 58/136/1 80/137/1 81/138/1 57/139/1
f 57/140/1 81/141/1 82/142/1 56/143/1
f 55/144/1 116/145/1 23/146/1 65/147/1 74/148/1
f 74/149/1 65/150/1 66/151/1 75/152/1
f 75/153/1 66/154/1 67/155/1 76/156/1
f 76/157/1 67/158/1 68/159/1 77/160/1
f 77/161/1 68/162/1 69/163/1 78/164/1
f 78/165/1 69/166/1 70/167/1 79/168/1
f 79/169/1 70/170/1 71/171/1 80/172/1
f 80/173/1 71/174/1 72/175/1 81/176/1
f 81/177/1 72/178/1 73/179/1 82/180/1
f 102/181/1 1/182/1 83/183/1 103/184/1
f 8/185/1 94/186/1 111/187/1 84/188/1
f 94/189/1 95/190/1 110/191/1 111/192/1
f 95/193/1 96/194/1 109/195/1 110/196/1
f 96/194/1 97/197/1 108/198/1 109/195/1
f 97/197/1 98/199/1 107/200/1 108/198/1
f 98/199/1 99/201/1 106/202/1 107/200/1
f 99/201/1 100/203/1 105/204/1 106/202/1
f 100/203/1 101/205/1 104/206/1 105/204/1
f 101/205/1 102/207/1 103/208/1 104/206/1
f 84/209/1 111/210/1 85/211/1 7/212/1
f 111/213/1 110/214/1 86/215/1 85/216/1
f 110/217/1 109/218/1 87/219/1 86/220/1
f 109/221/1 108/222/1 88/223/1 87/224/1
f 108/225/1 107/226/1 89/227/1 88/228/1
f 107/229/1 106/230/1 90/231/1 89/232/1
f 106/202/1 105/204/1 91/233/1 90/234/1
f 105/204/1 104/206/1 92/235/1 91/233/1
f 104/206/1 103/208/1 93/236/1 92/235/1
f 115/237/1 117/238/1 112/239/1 22/240/1
f 112/241/1 117/242/1 55/243/1 113/244/1 21/245/1
f 117/246/1 114/247/1 23/248/1 116/249/1 55/250/1
f 119/251/1 141/252/1 25/22/1 11/54/1
f 120/253/1 146/254/1 83/255/1 1/256/1
f 118/257/1 125/258/1 124/259/1 2/260/1
f 121/261/1 145/262/1 144/263/1 15/264/1
f 126/265/1 125/266/1 118/267/1 3/268/1
f 124/269/1 125/270/1 112/271/1 21/272/1
f 122/273/1 128/274/1 133/275/1 7/276/1
f 131/277/1 148/278/1 149/279/1 17/280/1
f 132/281/1 140/282/1 139/283/1 9/284/1
f 130/285/1 134/286/1 135/287/1 5/288/1
f 133/289/1 128/290/1 123/291/1 6/292/1
f 128/293/1 131/294/1 17/295/1 123/296/1
f 127/297/1 136/298/1 137/299/1 13/300/1
f 84/301/1 134/302/1 130/303/1 8/304/1
f 135/305/1 134/306/1 133/307/1 6/308/1
f 137/309/1 136/310/1 130/311/1 5/312/1
f 138/313/1 136/314/1 127/315/1 14/316/1
f 26/317/1 140/318/1 132/319/1 10/320/1
f 139/321/1 140/322/1 127/323/1 13/324/1
f 142/325/1 141/252/1 119/251/1 12/326/1
f 25/22/1 141/252/1 121/327/1 15/23/1
f 143/328/1 145/329/1 121/330/1 16/331/1
f 144/332/1 145/333/1 120/334/1 1/335/1
f 83/336/1 146/337/1 118/338/1 2/339/1
f 147/340/1 146/337/1 120/341/1 4/342/1
f 149/343/1 148/344/1 129/345/1 18/346/1
f 148/347/1 54/348/1 20/349/1 129/350/1
